# xmcd
#
# Track frame offsets: 
#        150
#        16973
#        31303
#        45090
#        61683
#        73693
#        91227
#        109203
#        146215
#        159903
#        172123
#        187428
#        200798
#        221908
#        235948
#        251023
#
# Disc length: 3557 seconds
#
# Revision: 2
# Processed by: cddbd v1.5.2PL0 Copyright (c) Steve Scherf et al.
# Submitted via: ExactAudioCopyFreeDBPlugin 1.0
#
DISCID=eb0de310
DTITLE=Kris Kristofferson - kris kristofferson, the greatest hits - CD
DTITLE=3 of 3 - SMM 513401-2
DYEAR=2003
DGENRE=Country
TTITLE0=Loving Her Was Easier (Than Anything I'll Ever Do Again), 1971
TTITLE1=The Pilgrim - Chapter 33, 1988
TTITLE2=Jody And The Kid, 1971
TTITLE3=Rain, 1974
TTITLE4=Lucky In Love, s.a.
TTITLE5=It's Never Gonna Be The Same Again, 1976
TTITLE6=Sugar Man, 1972
TTITLE7=Silver (The Hunger), 1975
TTITLE8=Kiss The World Goodbye, 1971
TTITLE9=Breakdown (A Long Way From Home), 1971
TTITLE10=Stairway To The Bottom, 1974
TTITLE11=Out Of Mind, Out Of Sight, 1972
TTITLE12=To Beat The Devil, 1970
TTITLE13=Nobody Wins, 1972
TTITLE14=Burden Of Freedom, 1971
TTITLE15=The Bigger The Fool (The Harder The Fall), 1979
EXTD=(c)2003 Sony Music Media - Sony Music Entertainment Germany\nCD 3
EXTD=of 3\nOrder: SMM 513401 2\n\nCatalog: 5134012000/C\nupc 50997513
EXTD=40126
EXTT0=
EXTT1=
EXTT2=
EXTT3=
EXTT4=
EXTT5=
EXTT6=
EXTT7=
EXTT8=
EXTT9=
EXTT10=
EXTT11=
EXTT12=
EXTT13=
EXTT14=
EXTT15=
PLAYORDER=
